<?xml version="1.0" encoding="UTF-8" standalone="no"?>
<svg
   id="Capa_1"
   data-name="Capa 1"
   viewBox="0 0 1920 1080"
   version="1.1"
   xmlns="http://www.w3.org/2000/svg"
   xmlns:svg="http://www.w3.org/2000/svg">
  <defs
     id="defs1">
    <style
       id="style1">
      .cls-1, .cls-2 {
        opacity: .4;
      }

      .cls-2, .cls-3 {
        fill: #9adbe8;
      }
    </style>
  </defs>
  <path
     class="cls-2"
     d="m 1066.0547,603.94491 54.96,2.36 c 1.06,-2.75 2.08,-5.51 3.04,-8.37 2.2,-6.67 3.97,-13.38 5.38,-20.1 l -47.32,-27.94 c 0.22,-3.31 0.27,-6.59 0.25,-9.87 l 48.75,-25.41 c -1.51,-9.83 -3.79,-19.49 -6.9,-28.87 l -55.01,-0.54 c -1.46,-2.94 -3.03,-5.81 -4.7,-8.63 l 29.53,-46.41 c -6.16,-7.72 -12.96,-14.95 -20.4,-21.57 l -47.91,27.02 c -2.72,-1.8 -5.53,-3.52 -8.4,-5.13 l 2.38,-54.97 c -2.76,-1.05 -5.54,-2.07 -8.38,-3.01 -6.66,-2.24 -13.37998,-3.98 -20.08998,-5.4 l -27.95,47.31 c -3.29,-0.22 -6.59,-0.28 -9.85,-0.24 l -25.42,-48.76 c -9.83,1.51 -19.49,3.81 -28.88,6.9 l -0.54,55.02 c -2.94,1.46 -5.82,3.03 -8.63,4.7 l -46.41,-29.53 c -7.71,6.17 -14.93,12.97 -21.57,20.39 l 27.04,47.93 c -1.82,2.72 -3.52,5.52 -5.13,8.39 l -54.97,-2.36 c -1.06,2.74 -2.08,5.53 -3.02,8.36 -2.22,6.68 -3.98,13.39 -5.39,20.11 l 47.32,27.96 c -0.22,3.28 -0.29,6.57 -0.25,9.84 l -48.76,25.43 c 1.51,9.83 3.79,19.49 6.9,28.86 l 55.02,0.55 c 1.46,2.94 3.04,5.81 4.7,8.63 l -29.53,46.41 c 6.16,7.7 12.96,14.92 20.38,21.57 l 47.93,-27.04 c 2.72,1.82 5.52,3.52 8.39,5.15 l -2.36,54.94 c 2.74,1.07 5.53,2.1 8.37,3.03 6.66,2.24 13.38,3.98 20.1,5.4 l 27.95,-47.32 c 3.3,0.21 6.58,0.28 9.86,0.24 l 25.42,48.77 c 9.84,-1.53 19.49998,-3.81 28.87998,-6.92 l 0.55,-55.02 c 2.93,-1.44 5.79,-3.03 8.61,-4.7 l 46.43,29.55 c 7.7,-6.15 14.93,-12.98 21.57,-20.39 l -27.04,-47.94 c 1.82,-2.71 3.53,-5.51 5.15,-8.39 z m -141.66998,29.34 c -50.68,-16.88 -78.05,-71.6 -61.15,-122.3 16.87,-50.63 71.64,-78.02 122.26,-61.15 50.68998,16.9 78.06998,71.65 61.18998,122.3 -16.89,50.67 -71.64998,78.05 -122.30998,61.15 z"
     id="path1" />
</svg>
