<?xml version="1.0" encoding="UTF-8" standalone="no"?>
<svg
   id="Capa_1"
   data-name="Capa 1"
   viewBox="0 0 1000 1100"
   version="1.1"
   xmlns="http://www.w3.org/2000/svg"
   xmlns:svg="http://www.w3.org/2000/svg">
  <defs
     id="defs1">
    <style
       id="style1">
      .cls-1, .cls-2 {
        opacity: .4;
      }

      .cls-2, .cls-3 {
        fill: #9adbe8;
      }

      @keyframes spin {
        to { transform: rotate(360deg); }
      }
      @keyframes spin-reverse {
        to { transform: rotate(-360deg); }
      }

      #path1 {
        transform-box: fill-box;
        transform-origin: center;
        animation: spin 18s linear infinite;
      }
      #path2 {
        transform-box: fill-box;
        transform-origin: center;
        animation: spin-reverse 30s linear infinite;
      }
      #g4 {
        transform-box: fill-box;
        transform-origin: center;
        animation: spin 18s linear infinite;
      }
    </style>
  </defs>
  <path
     class="cls-2"
     d="M388.88,858.22l54.96,2.36c1.06-2.75,2.08-5.51,3.04-8.37,2.2-6.67,3.97-13.38,5.38-20.1l-47.32-27.94c.22-3.31.27-6.59.25-9.87l48.75-25.41c-1.51-9.83-3.79-19.49-6.9-28.87l-55.01-.54c-1.46-2.94-3.03-5.81-4.7-8.63l29.53-46.41c-6.16-7.72-12.96-14.95-20.4-21.57l-47.91,27.02c-2.72-1.8-5.53-3.52-8.4-5.13l2.38-54.97c-2.76-1.05-5.54-2.07-8.38-3.01-6.66-2.24-13.38-3.98-20.09-5.4l-27.95,47.31c-3.29-.22-6.59-.28-9.85-.24l-25.42-48.76c-9.83,1.51-19.49,3.81-28.88,6.9l-.54,55.02c-2.94,1.46-5.82,3.03-8.63,4.7l-46.41-29.53c-7.71,6.17-14.93,12.97-21.57,20.39l27.04,47.93c-1.82,2.72-3.52,5.52-5.13,8.39l-54.97-2.36c-1.06,2.74-2.08,5.53-3.02,8.36-2.22,6.68-3.98,13.39-5.39,20.11l47.32,27.96c-.22,3.28-.29,6.57-.25,9.84l-48.76,25.43c1.51,9.83,3.79,19.49,6.9,28.86l55.02.55c1.46,2.94,3.04,5.81,4.7,8.63l-29.53,46.41c6.16,7.7,12.96,14.92,20.38,21.57l47.93-27.04c2.72,1.82,5.52,3.52,8.39,5.15l-2.36,54.94c2.74,1.07,5.53,2.1,8.37,3.03,6.66,2.24,13.38,3.98,20.1,5.4l27.95-47.32c3.3.21,6.58.28,9.86.24l25.42,48.77c9.84-1.53,19.5-3.81,28.88-6.92l.55-55.02c2.93-1.44,5.79-3.03,8.61-4.7l46.43,29.55c7.7-6.15,14.93-12.98,21.57-20.39l-27.04-47.94c1.82-2.71,3.53-5.51,5.15-8.39ZM247.21,887.56c-50.68-16.88-78.05-71.6-61.15-122.3,16.87-50.63,71.64-78.02,122.26-61.15,50.69,16.9,78.07,71.65,61.19,122.3-16.89,50.67-71.65,78.05-122.31,61.15Z"
     id="path1" />
  <path
     class="cls-2"
     d="M581.88,316.9l24.02-7.62c-.98-9.55-2.41-19.11-4.41-28.64l-25.23-.02c-2.52-11.07-5.75-22.07-9.86-33.03-1.09-2.95-2.32-5.83-3.53-8.74l20.5-14.63c-3.94-8.95-8.3-17.61-13.04-25.93l-23.95,7.75c-7.59-12.75-16.11-24.68-25.56-35.69l14.89-20.17c-6.49-7.23-13.31-14.08-20.45-20.58l-20.28,14.73c-11.09-9.65-22.98-18.29-35.46-25.88l7.98-23.88c-8.37-4.87-16.98-9.31-25.8-13.31l-14.82,20.4c-13.44-5.76-27.34-10.4-41.64-13.81l.21-25.08c-9.44-2.08-18.99-3.64-28.66-4.71l-7.76,23.82c-14.48-1.3-29.16-1.32-43.9-.1l-7.59-24.03c-9.56.98-19.12,2.43-28.67,4.42l-.04,25.17c-11.05,2.57-22.07,5.82-32.98,9.9-2.98,1.11-5.86,2.34-8.77,3.54l-14.63-20.51c-8.93,3.96-17.59,8.31-25.91,13.05l7.75,23.94c-12.76,7.58-24.69,16.13-35.69,25.57l-20.17-14.9c-7.23,6.47-14.1,13.28-20.59,20.43l14.75,20.3c-9.67,11.1-18.31,22.98-25.9,35.46l-23.88-7.98c-4.86,8.38-9.29,16.99-13.27,25.82l20.36,14.8c-5.73,13.45-10.43,27.36-13.81,41.64l-25.1-.2c-2.03,9.43-3.61,18.99-4.67,28.63l23.82,7.76c-1.32,14.5-1.32,29.17-.12,43.91l-24.01,7.6c.96,9.55,2.41,19.1,4.41,28.68h25.22c2.54,11.06,5.75,22.09,9.84,33,1.12,2.96,2.34,5.86,3.54,8.77l-20.5,14.61c3.93,8.96,8.29,17.58,13.04,25.92l23.94-7.76c7.59,12.74,16.12,24.69,25.57,35.7l-14.89,20.15c6.48,7.25,13.3,14.12,20.43,20.61l20.32-14.74c11.07,9.69,22.96,18.29,35.44,25.87l-7.98,23.91c8.38,4.84,17,9.31,25.78,13.28l14.84-20.37c13.45,5.76,27.36,10.45,41.64,13.82l-.2,25.09c9.43,2.05,18.98,3.62,28.64,4.71l7.74-23.86c14.5,1.31,29.2,1.36,43.91.14l7.6,24.02c9.56-.97,19.11-2.44,28.67-4.41v-25.22c11.07-2.54,22.09-5.75,33.01-9.85,2.96-1.14,5.86-2.36,8.77-3.55l14.63,20.5c8.94-3.97,17.59-8.3,25.93-13.04l-7.77-23.97c12.74-7.58,24.69-16.11,35.69-25.57l20.14,14.89c7.25-6.47,14.13-13.27,20.61-20.41l-14.73-20.33c9.66-11.07,18.28-22.96,25.88-35.43l23.88,7.98c4.86-8.37,9.3-16.99,13.27-25.83l-20.35-14.8c5.75-13.45,10.42-27.38,13.84-41.67l25.05.2c2.06-9.42,3.63-18.97,4.73-28.59l-23.85-7.79c1.32-14.48,1.32-29.18.11-43.9ZM482.43,279.11c8.14,21.7,11.46,44.04,10.5,65.83-15.31,6.71-29.02,4.29-41.13-7.24.02-16.55-3.22-33.35-10.13-49.5-14.01-32.74-40.79-57.24-73.06-68.87-7.08-15.41-5.01-29.21,6.23-41.41,47.87,14.7,88.66,50.63,107.59,101.19ZM326,428.19c-36.28,0-68.94-21.54-83.21-54.89-19.62-45.85,1.72-99.12,47.57-118.74,11.35-4.86,23.31-7.32,35.53-7.32,36.28,0,68.94,21.55,83.21,54.9,19.62,45.86-1.72,99.12-47.58,118.74-11.35,4.86-23.31,7.32-35.53,7.32ZM267.3,181.16c22.14-8.28,44.93-11.54,67.13-10.39,6.44,15.3,3.69,28.98-8.19,41.06-.12,0-.23-.01-.34-.01-17.04,0-33.68,3.42-49.46,10.17-33.25,14.23-57.21,41.19-68.7,72.76-15.33,6.76-29.06,4.38-41.19-7.12,14.91-47.38,50.65-87.67,100.75-106.47ZM169.46,396.36c-8.33-22.23-11.59-45.11-10.41-67.39,15.29-6.76,28.98-4.48,41.08,6.9-.28,17.15,2.92,34.62,10.1,51.37,14.18,33.14,41.44,57.82,74.24,69.27,6.22,15.15,3.41,28.71-8.39,40.68-47.45-14.87-87.82-50.64-106.62-100.82ZM384.59,494.21c-21.79,8.17-44.21,11.47-66.08,10.49-7.05-15.3-5.08-29.02,5.93-41.14.53,0,1.04.05,1.56.05,17.04,0,33.68-3.42,49.46-10.17,33.89-14.51,58.16-42.22,69.37-74.57,15.24-6.58,28.9-4.07,40.96,7.47-14.64,47.97-50.59,88.88-101.21,107.87Z"
     id="path2" />
  <g
     class="cls-1"
     id="g4">
    <path
       class="cls-3"
       d="M800.79,731.54l34.84-5.22c3.46-15.56,4.97-31.21,4.6-46.61l-33.2-11.83c-.69-6.97-1.84-13.85-3.43-20.61l27.54-21.88c-4.75-14.95-11.26-29.28-19.39-42.67l-34.62,6.34c-4.07-5.65-8.46-11.04-13.24-16.16l12.91-32.73c-11.41-10.45-24.18-19.62-38.14-27.23l-26.79,22.79c-4.67-2.1-9.46-4.01-14.4-5.68-1.71-.59-3.43-1.09-5.13-1.62l-5.2-34.83c-15.58-3.46-31.21-4.98-46.62-4.62l-11.85,33.22c-6.95.69-13.84,1.84-20.6,3.42l-21.89-27.54c-14.96,4.73-29.29,11.25-42.67,19.38l6.36,34.64c-5.64,4.04-11.05,8.46-16.15,13.22l-32.74-12.9c-10.44,11.4-19.61,24.16-27.23,38.15l22.8,26.79c-2.1,4.67-4.01,9.46-5.69,14.41-.59,1.71-1.09,3.42-1.61,5.13l-34.84,5.2c-3.44,15.56-4.97,31.2-4.61,46.61l33.2,11.83c.71,6.96,1.85,13.83,3.42,20.6l-27.54,21.89c4.73,14.96,11.25,29.3,19.4,42.68l34.62-6.34c4.06,5.65,8.46,11.05,13.24,16.15l-12.91,32.74c11.41,10.44,24.17,19.6,38.13,27.23l26.8-22.8c4.67,2.09,9.47,4.02,14.42,5.7,1.7.59,3.41,1.08,5.12,1.59l5.2,34.86c15.57,3.45,31.21,4.97,46.62,4.61l11.84-33.21c6.96-.71,13.84-1.83,20.59-3.43l21.9,27.53c14.95-4.74,29.27-11.25,42.66-19.39l-6.34-34.62c5.64-4.07,11.04-8.47,16.15-13.24l32.72,12.91c10.45-11.41,19.62-24.18,27.24-38.15l-22.79-26.79c2.08-4.68,4.02-9.47,5.7-14.41.58-1.7,1.08-3.41,1.6-5.12ZM770.1,726.74c-23.51,69.1-98.55,106.07-167.63,82.56-71.76-24.4-108.86-104.44-79.55-175.61,25.1-60.96,93.05-94.36,156.64-77,74.19,20.25,114.92,98.38,90.54,170.05Z"
       id="path3" />
    <path
       class="cls-3"
       d="M645.01,563.38c-66.63,0-120.84,54.21-120.84,120.84s54.21,120.84,120.84,120.84,120.84-54.21,120.84-120.84-54.21-120.84-120.84-120.84ZM645.01,771.89c-48.34,0-87.67-39.33-87.67-87.67s39.33-87.67,87.67-87.67,87.67,39.32,87.67,87.67-39.33,87.67-87.67,87.67Z"
       id="path4" />
  </g>
</svg>
