<?xml version="1.0" encoding="UTF-8" standalone="no"?>
<svg
   id="Capa_1"
   data-name="Capa 1"
   viewBox="0 0 1920 1080"
   version="1.1"
   xmlns="http://www.w3.org/2000/svg"
   xmlns:svg="http://www.w3.org/2000/svg">
  <defs
     id="defs1">
    <style
       id="style1">
      .cls-1, .cls-2 {
        opacity: .4;
      }

      .cls-2, .cls-3 {
        fill: #9adbe8;
      }
    </style>
  </defs>
  <path
     class="cls-2"
     d="m 698.67604,489.27583 -23.85,7.79 c 1.1,9.62 2.67,19.17 4.73,28.59 l 25.05,-0.2 c 3.42,14.29 8.09,28.22 13.84,41.67 l -20.35,14.8 c 3.97,8.83 8.41,17.45 13.27,25.83 l 23.88,-7.98 c 7.6,12.46 16.22,24.36 25.88,35.43 l -14.73,20.33 c 6.48,7.14 13.36,13.95 20.61,20.41 l 20.14,-14.89 c 11,9.46 22.96,17.99 35.69,25.57 l -7.77,23.97 c 8.34,4.74 17,9.07 25.93,13.04 l 14.63,-20.5 c 2.91,1.18 5.81,2.4 8.77,3.55 10.92,4.1 21.94,7.3 33,9.85 v 25.22 c 9.58,1.97 19.12,3.43 28.68,4.41 l 7.6,-24.02 c 14.71,1.22 29.41,1.18 43.91,-0.14 l 7.74,23.86 c 9.66,-1.09 19.20996,-2.65 28.63996,-4.71 l -0.2,-25.09 c 14.28,-3.37 28.19,-8.05 41.64,-13.82 l 14.84,20.37 c 8.78,-3.97 17.4,-8.44 25.78,-13.28 l -7.98,-23.91 c 12.48,-7.57 24.37,-16.18 35.44,-25.87 l 20.32,14.74 c 7.13,-6.49 13.95,-13.36 20.43,-20.61 l -14.89,-20.15 c 9.45,-11.01 17.98,-22.96 25.57,-35.7 l 23.94,7.76 c 4.75,-8.34 9.11,-16.96 13.04,-25.92 l -20.5,-14.61 c 1.2,-2.92 2.43,-5.81 3.54,-8.77 4.09,-10.92 7.31,-21.94 9.84,-33.01 h 25.22 c 2,-9.57 3.46,-19.12 4.41,-28.67 l -24.01,-7.6 c 1.2,-14.74 1.19,-29.41 -0.12,-43.91 l 23.82,-7.76 c -1.06,-9.64 -2.64,-19.21 -4.67,-28.63 l -25.1,0.2 c -3.38,-14.29 -8.08,-28.19 -13.81,-41.64 l 20.36,-14.8 c -3.98,-8.83 -8.41,-17.45 -13.27,-25.82 l -23.88,7.98 c -7.59,-12.48 -16.23,-24.36 -25.9,-35.46 l 14.75,-20.29999 c -6.49,-7.15 -13.37,-13.96 -20.59,-20.43 l -20.17,14.9 c -11,-9.45 -22.93,-17.99 -35.69,-25.57 l 7.75,-23.94 c -8.32,-4.75 -16.98,-9.09 -25.91,-13.05 l -14.63,20.51 c -2.91,-1.2 -5.79,-2.43 -8.77,-3.54 -10.91,-4.08 -21.93,-7.33 -32.98,-9.9 l -0.04,-25.17 c -9.55,-1.99 -19.10996,-3.44 -28.66996,-4.42 l -7.59,24.03 c -14.74,-1.22 -29.42,-1.2 -43.9,0.1 l -7.76,-23.82 c -9.66,1.07 -19.21,2.62 -28.66,4.71 l 0.21,25.08 c -14.3,3.41 -28.2,8.05 -41.64,13.81 l -14.82,-20.4 c -8.82,4 -17.43,8.44 -25.8,13.31 l 7.98,23.88 c -12.48,7.59 -24.38,16.24 -35.46,25.88 l -20.28,-14.73 c -7.15,6.5 -13.97,13.35 -20.45,20.58 l 14.89,20.16999 c -9.45,11.02 -17.97,22.94 -25.56,35.69 l -23.95,-7.75 c -4.74,8.32 -9.1,16.98 -13.04,25.93 l 20.5,14.63 c -1.21,2.91 -2.44,5.79 -3.53,8.74 -4.11,10.97 -7.34,21.96 -9.86,33.03 l -25.23,0.02 c -2,9.53 -3.43,19.09 -4.41,28.64 l 24.02,7.62 c -1.21,14.72 -1.21,29.42 0.11,43.9 z m 206.93,-182.88 c 11.24,12.19 13.3,25.99 6.23,41.41 -32.27,11.63 -59.05,36.13 -73.06,68.87 -6.91,16.15 -10.16,32.96 -10.13,49.5 -12.11,11.53 -25.82,13.94 -41.13,7.24 -0.95,-21.79 2.37,-44.13 10.5,-65.83 18.93,-50.56 59.72,-86.48 107.59,-101.19 z m 13.31,242.95 c -45.85,-19.62 -67.19,-72.88 -47.58,-118.74 14.27,-33.35 46.93,-54.9 83.21,-54.9 12.23,0 24.18,2.46 35.53,7.32 45.84996,19.62 67.18996,72.89 47.56996,118.74 -14.27,33.35 -46.92996,54.89 -83.20996,54.89 -12.22,0 -24.18,-2.46 -35.53,-7.32 z m 194.97996,-133.24 c -12.12,11.51 -25.85,13.88 -41.19,7.12 -11.49,-31.57 -35.45,-58.53 -68.7,-72.76 -15.77996,-6.75 -32.41996,-10.17 -49.45996,-10.17 -0.11,0 -0.23,0.01 -0.34,0.01 -11.88,-12.08 -14.63,-25.76 -8.19,-41.06 22.2,-1.15 44.99,2.1 67.12996,10.39 50.1,18.8 85.84,59.09 100.75,106.47 z m -109.53,209.55 c -11.79996,-11.97 -14.59996,-25.53 -8.38996,-40.68 32.79996,-11.45 60.05996,-36.13 74.23996,-69.27 7.17,-16.76 10.37,-34.23 10.1,-51.37 12.1,-11.38 25.8,-13.66 41.08,-6.9 1.18,22.28 -2.08,45.17 -10.41,67.39 -18.8,50.18 -59.17,85.95 -106.62,100.82 z m -209.71996,-110.84 c 12.06,-11.55 25.71,-14.05 40.96,-7.47 11.22,32.36 35.48,60.07 69.37,74.57 15.78,6.75 32.42,10.17 49.46,10.17 0.53,0 1.04,-0.05 1.56,-0.05 11.01,12.12 12.97,25.84 5.93,41.14 -21.87,0.98 -44.29,-2.33 -66.08,-10.49 -50.62,-18.98 -86.57,-59.89 -101.21,-107.87 z"
     id="path6" />
</svg>
