<?xml version="1.0" encoding="UTF-8" standalone="no"?>
<svg
   id="Capa_1"
   data-name="Capa 1"
   viewBox="0 0 1920 1080"
   version="1.1"
   xmlns="http://www.w3.org/2000/svg"
   xmlns:svg="http://www.w3.org/2000/svg">
  <defs
     id="defs1">
    <style
       id="style1">
      .cls-1, .cls-2 {
        opacity: .4;
      }

      .cls-2, .cls-3 {
        fill: #9adbe8;
      }
    </style>
  </defs>
  <g
     class="cls-1"
     id="g4"
     transform="translate(297.10037,-147.2119)">
    <path
       class="cls-3"
       d="m 800.79,731.54 34.84,-5.22 c 3.46,-15.56 4.97,-31.21 4.6,-46.61 l -33.2,-11.83 c -0.69,-6.97 -1.84,-13.85 -3.43,-20.61 l 27.54,-21.88 c -4.75,-14.95 -11.26,-29.28 -19.39,-42.67 l -34.62,6.34 c -4.07,-5.65 -8.46,-11.04 -13.24,-16.16 l 12.91,-32.73 c -11.41,-10.45 -24.18,-19.62 -38.14,-27.23 l -26.79,22.79 c -4.67,-2.1 -9.46,-4.01 -14.4,-5.68 -1.71,-0.59 -3.43,-1.09 -5.13,-1.62 l -5.2,-34.83 c -15.58,-3.46 -31.21,-4.98 -46.62,-4.62 l -11.85,33.22 c -6.95,0.69 -13.84,1.84 -20.6,3.42 l -21.89,-27.54 c -14.96,4.73 -29.29,11.25 -42.67,19.38 l 6.36,34.64 c -5.64,4.04 -11.05,8.46 -16.15,13.22 l -32.74,-12.9 c -10.44,11.4 -19.61,24.16 -27.23,38.15 l 22.8,26.79 c -2.1,4.67 -4.01,9.46 -5.69,14.41 -0.59,1.71 -1.09,3.42 -1.61,5.13 l -34.84,5.2 c -3.44,15.56 -4.97,31.2 -4.61,46.61 l 33.2,11.83 c 0.71,6.96 1.85,13.83 3.42,20.6 l -27.54,21.89 c 4.73,14.96 11.25,29.3 19.4,42.68 l 34.62,-6.34 c 4.06,5.65 8.46,11.05 13.24,16.15 l -12.91,32.74 c 11.41,10.44 24.17,19.6 38.13,27.23 l 26.8,-22.8 c 4.67,2.09 9.47,4.02 14.42,5.7 1.7,0.59 3.41,1.08 5.12,1.59 l 5.2,34.86 c 15.57,3.45 31.21,4.97 46.62,4.61 l 11.84,-33.21 c 6.96,-0.71 13.84,-1.83 20.59,-3.43 l 21.9,27.53 c 14.95,-4.74 29.27,-11.25 42.66,-19.39 l -6.34,-34.62 c 5.64,-4.07 11.04,-8.47 16.15,-13.24 L 789.04,816 c 10.45,-11.41 19.62,-24.18 27.24,-38.15 l -22.79,-26.79 c 2.08,-4.68 4.02,-9.47 5.7,-14.41 0.58,-1.7 1.08,-3.41 1.6,-5.12 z m -30.69,-4.8 c -23.51,69.1 -98.55,106.07 -167.63,82.56 -71.76,-24.4 -108.86,-104.44 -79.55,-175.61 25.1,-60.96 93.05,-94.36 156.64,-77 74.19,20.25 114.92,98.38 90.54,170.05 z"
       id="path3" />
    <path
       class="cls-3"
       d="m 645.01,563.38 c -66.63,0 -120.84,54.21 -120.84,120.84 0,66.63 54.21,120.84 120.84,120.84 66.63,0 120.84,-54.21 120.84,-120.84 0,-66.63 -54.21,-120.84 -120.84,-120.84 z m 0,208.51 c -48.34,0 -87.67,-39.33 -87.67,-87.67 0,-48.34 39.33,-87.67 87.67,-87.67 48.34,0 87.67,39.32 87.67,87.67 0,48.35 -39.33,87.67 -87.67,87.67 z"
       id="path4" />
  </g>
</svg>
